<svg width="1200" height="300" viewBox="0 0 1200 300" xmlns="http://www.w3.org/2000/svg" role="img" aria-label="Principia Computatoria Banner">
<stop offset="0%" stop-color="#FBF7EE"/>
<stop offset="100%" stop-color="#F4EFE4"/>
</linearGradient>
<filter id="softShadow" x="-50%" y="-50%" width="200%" height="200%">
<feDropShadow dx="0" dy="6" stdDeviation="12" flood-color="#000" flood-opacity="0.12"/>
</filter>
</defs>


<!-- background -->
<rect width="100%" height="100%" fill="url(#paper)" />


<!-- outer frame -->
<rect x="20" y="20" width="1160" height="260" rx="12" ry="12" fill="none" stroke="#2b2b2b" stroke-width="2" />


<!-- title -->
<g filter="url(#softShadow)">
<text x="50%" y="120" font-family="Georgia, 'Times New Roman', serif" font-size="56" letter-spacing="2" fill="#111" text-anchor="middle" dominant-baseline="middle">
PRINCIPIA
</text>
<text x="50%" y="180" font-family="Georgia, 'Times New Roman', serif" font-size="34" fill="#111" text-anchor="middle" dominant-baseline="middle">
COMPUTATORIA
</text>
</g>


<!-- separator flourish -->
<g transform="translate(600,210)">
<path d="M-280 0 C -200 -18 -120 -18 -40 0" fill="none" stroke="#6b5838" stroke-width="2"/>
<path d="M40 0 C 120 -18 200 -18 280 0" fill="none" stroke="#6b5838" stroke-width="2"/>
<circle cx="0" cy="0" r="4" fill="#6b5838"/>
</g>


<!-- subtitle in Latin -->
<text x="50%" y="240" font-family="Georgia, 'Times New Roman', serif" font-size="14" fill="#5a4b3b" text-anchor="middle">Foundations of Computing — A Curated Treatise on Systems, Theory, and Practice</text>


<!-- corner ornaments -->
<g fill="#6b5838" opacity="0.9">
<path d="M40 40 L70 40 L40 70 Z" />
<path d="M1160 40 L1130 40 L1160 70 Z" />
</g>


<!-- small emblem (laurel + gear) -->
<g transform="translate(1100,60) scale(0.74)">
<circle cx="0" cy="0" r="36" fill="#fff" stroke="#6b5838" stroke-width="2" />
<g transform="translate(-6,-4)" fill="none" stroke="#6b5838" stroke-width="2">
<path d="M-20 8 C -12 -6 -2 -10 6 2" />
<path d="M20 8 C 12 -6 2 -10 -6 2" />
</g>
<g transform="translate(-2,6)" fill="#6b5838">
<circle cx="0" cy="0" r="4" />
</g>
</g>


</svg>
